<svg xmlns="http://www.w3.org/2000/svg" viewBox="0 0 64 64" fill="none">
  <defs>
    <linearGradient id="gf-flame" x1="32" y1="6" x2="32" y2="58" gradientUnits="userSpaceOnUse">
      <stop offset="0%" stop-color="#FF6B00"/>
      <stop offset="50%" stop-color="#FF3B00"/>
      <stop offset="100%" stop-color="#D00000"/>
    </linearGradient>
    <linearGradient id="gf-core" x1="32" y1="24" x2="32" y2="52" gradientUnits="userSpaceOnUse">
      <stop offset="0%" stop-color="#FFD600"/>
      <stop offset="100%" stop-color="#FF6B00"/>
    </linearGradient>
    <filter id="gf-glow" x="-20%" y="-20%" width="140%" height="140%">
      <feGaussianBlur stdDeviation="3" result="blur" />
      <feComposite in="SourceGraphic" in2="blur" operator="over" />
    </filter>
  </defs>
  <!-- Outer Orbit Ring -->
  <circle cx="32" cy="34" r="26" stroke="#3DB7D9" stroke-width="1.5" stroke-dasharray="6 4" opacity="0.6"/>
  <!-- Fire Flame Shape -->
  <path d="M32 4C32 4 44 18 44 32C44 41.941 38.627 48 32 48C25.373 48 20 41.941 20 32C20 18 32 4 32 4Z" fill="url(#gf-flame)" filter="url(#gf-glow)"/>
  <!-- Inner Flame Core -->
  <path d="M32 20C32 20 38 28 38 36C38 41.523 35.314 44 32 44C28.686 44 26 41.523 26 36C26 28 32 20 32 20Z" fill="url(#gf-core)"/>
  <!-- Top Satellite Marker Dot -->
  <circle cx="32" cy="7" r="3.5" fill="#00F0FF"/>
</svg>